<svg version="1.2" xmlns="http://www.w3.org/2000/svg" viewBox="0 0 27 32" width="27" height="32"><style>.A{fill:#0e0e0e}.B{fill:#f0a206}.C{fill:#bf8006}.D{fill:#a78556}</style><path class="A" d="m26.8 28.5q-0.1-0.2-0.3-0.3q-0.2-0.1-0.3-0.2q-0.2-0.1-0.4-0.2q-0.2 0-0.4-0.1q-1-0.3-2-0.5q-1-0.2-2.1-0.3q-1 0-2 0.1q-1.1 0.1-2.1 0.3c0.1-0.2 0.4-0.3 0.6-0.3l2.9-0.6q0 0 0 0q0 0 0 0q0.1-0.1 0.1-0.1q0 0 0 0c0.1 0 0-0.1 0-0.2c-0.1-2.4 0.3-5.5-0.4-7.6q0.1 0 0.2 0q0.2 0 0.3 0q0.1 0 0.2-0.1q0.2 0 0.3 0v2.5c-0.2 1.9-0.4 4.2-0.1 5.3q0 0 0 0q0 0 0 0q0 0.1 0 0.1q0 0 0.1 0q0 0 0 0q0 0 0 0q0 0.1 0.1 0.1q0 0 0 0c1.6 0.3 3.4 0.4 4.9 1.2c0.3 0.2 0.6 0.6 0.4 0.9z"/><path class="B" d="m21.4 22.6q-0.9 0-1.9-0.1q-1.1-0.1-2.2-0.3q-1-0.2-2.1-0.5q-1-0.3-2.1-0.6q-1-0.4-2-0.9c-0.4-0.2-0.8-0.4-1-0.8c-0.3-0.5-0.2-1.1-0.1-1.7c0.4-1.5 1.5-4.2 2.3-5.5c1.4-2.3 4.9-5.2 7.7-6.8q0.7-0.4 1.4-0.8c0 0 0 18 0 18z"/><path class="C" d="m3 21.9l0.6-0.9q-0.4 0.2-0.9 0.3q-0.4 0.1-0.9 0.2q-0.4 0.1-0.9 0.1q-0.4 0-0.9 0c4.1-3.2 10.3-8.7 14.9-11.2c0.8-0.4 1.5-0.1 2.2 0.4c0.8 0.7 1 1.5 1.5 2.2q0.2 0.2 0.2 0.4q0.1 0.2 0.2 0.4q0.1 0.2 0.1 0.4q0 0.3 0 0.5c0 2.3-3.1 3.1-4.9 3.7c-2.5 0.6-4.8 1.6-7.1 2.4q-0.5 0.2-1 0.4q-0.5 0.1-1 0.2q-0.6 0.2-1.1 0.3q-0.5 0.1-1 0.2z"/><path class="A" d="m22.6 30.9q-0.2-0.1-0.3-0.2q-0.2-0.1-0.4-0.2q-0.2-0.1-0.3-0.2q-0.2-0.1-0.4-0.1q-1-0.4-2-0.6q-1.1-0.2-2.1-0.2q-1-0.1-2.1 0q-1 0.1-2 0.4c0.1-0.2 0.3-0.3 0.6-0.4l2.8-0.6q0.1 0 0.1 0q0 0 0 0q0 0 0 0q0.1 0 0.1 0c0-0.1 0-0.2 0-0.3c-0.1-2.4 0.2-5.4-0.5-7.6c0.8-0.1 1.3-0.1 1.3-0.1c0 0 0 0.1 0 0.6c-0.2 1.8-0.7 5.8-0.3 7.2q0 0 0 0.1q0 0 0 0q0 0 0 0q0 0.1 0 0.1q0.1 0 0.1 0q0 0 0 0q0 0 0 0q0 0 0.1 0c1.6 0.4 3.4 0.4 4.9 1.3c0.3 0.2 0.6 0.5 0.4 0.8z"/><path class="A" d="m20.4 28.8q0.3 0 0.6 0q0.3 0.1 0.6 0.2q0.3 0 0.6 0.1q0.3 0.1 0.5 0.2c0.1 0.1 0.2 0.1 0.2 0.2q0 0 0 0.1q-0.1 0-0.1 0q0 0 0 0q0 0-0.1 0q0 0 0 0q0 0-0.1 0q0 0 0 0q0 0-0.1-0.1q-0.1 0-0.3-0.1q-0.1 0-0.3-0.1q-0.2 0-0.3-0.1q-0.2 0-0.4 0c-0.5-0.1-1.8-0.2-2.4-0.2c-1-0.1-1.3 0.2-2.2 0c0-0.4 1.4-0.3 1.7-0.3q0.3 0 0.5 0q0.3 0 0.6 0q0.2 0 0.5 0q0.2 0.1 0.5 0.1z"/><path class="A" d="m18.8 30.2q0.2 0.2 0.4 0.4q0.2 0.2 0.4 0.4q0.2 0.2 0.4 0.5q0.1 0.2 0.2 0.5c-0.1 0.1-0.2-0.1-0.3-0.2q-0.3-0.4-0.6-0.7q-0.4-0.4-0.8-0.7q-0.4-0.3-0.8-0.6q-0.5-0.2-1-0.4q0 0-0.1 0q-0.1-0.1-0.2-0.1q0 0-0.1-0.1q-0.1 0-0.2 0c0.1 0 0.6-0.2 0.7-0.2q0.1 0.1 0.2 0.1q0 0 0.1 0.1q0.1 0 0.2 0.1q0 0 0.1 0.1q0.2 0.1 0.4 0.2q0.2 0.1 0.3 0.2q0.2 0.1 0.4 0.2q0.1 0.1 0.3 0.2z"/><path class="A" d="m24.6 26.3q0.3 0 0.6 0.1q0.3 0 0.6 0.1q0.3 0.1 0.6 0.2q0.3 0 0.5 0.2c0.1 0 0.2 0.1 0.2 0.2q0 0 0 0q0 0-0.1 0q0 0 0 0.1q0 0 0 0q-0.1 0-0.1-0.1q0 0 0 0q-0.1 0-0.1 0q0 0 0 0q-0.2-0.1-0.4-0.1q-0.1-0.1-0.3-0.1q-0.1-0.1-0.3-0.1q-0.2-0.1-0.3-0.1c-0.6 0-1.9-0.2-2.5-0.2c-0.9 0-1.2 0.2-2.2 0c0.1-0.4 1.4-0.3 1.7-0.3q0.3 0 0.6 0q0.2 0 0.5 0q0.2 0 0.5 0.1q0.3 0 0.5 0z"/><path class="A" d="m23 27.8q0.3 0.1 0.5 0.3q0.2 0.2 0.4 0.4q0.1 0.3 0.3 0.5q0.1 0.2 0.3 0.5c-0.1 0.1-0.3 0-0.4-0.1q-0.2-0.4-0.6-0.8q-0.4-0.4-0.8-0.7q-0.4-0.3-0.8-0.5q-0.4-0.3-0.9-0.4q-0.1-0.1-0.2-0.1q-0.1 0-0.1-0.1q-0.1 0-0.2 0q-0.1-0.1-0.1-0.1c0 0 0.5-0.2 0.6-0.1q0.1 0 0.2 0q0.1 0.1 0.1 0.1q0.1 0.1 0.2 0.1q0.1 0.1 0.1 0.1q0.2 0.1 0.4 0.2q0.2 0.1 0.4 0.2q0.1 0.1 0.3 0.2q0.2 0.1 0.3 0.3z"/><path class="D" d="m21.4 6.1v10q-0.4 0.2-0.9 0.4q-1.1 0.4-2.4 0.8q-1.2 0.4-2.4 0.7q-1.3 0.4-2.5 0.6q-1.3 0.3-2.5 0.5q0-0.2 0-0.3q0.1-0.2 0.2-0.3q0-0.1 0.1-0.3q0.1-0.1 0.2-0.2q-0.5 0.2-1 0.4q-0.6 0.2-1.1 0.4q-0.5 0.1-1.1 0.3q-0.5 0.1-1.1 0.2c-0.6 0.2-1.2 0.3-1.8 0q0.1-0.3 0.3-0.5q0.1-0.3 0.3-0.5q0.2-0.2 0.5-0.4q0.2-0.2 0.4-0.3q-0.1 0.1-0.3 0.1q-0.1 0.1-0.3 0.1q-0.2 0.1-0.3 0.1q-0.2 0-0.4 0c0-0.7 0.5-1.3 1-1.7c2.5-2.5 5.2-4.7 7.9-6.9q0.4-0.2 0.7-0.5q0.4-0.3 0.7-0.5q0.4-0.3 0.8-0.5q0.3-0.3 0.7-0.5c1.3-0.8 2.7-1.3 4.1-1.2h0.2z"/><path class="A" d="m21.4 16.1q-0.4 0.2-0.9 0.4q-1.1 0.4-2.4 0.8q-1.2 0.4-2.4 0.7q-1.2 0.4-2.5 0.6q-1.3 0.3-2.5 0.5q0-0.2 0-0.3q0.1-0.2 0.2-0.3q0-0.1 0.1-0.3q0.1-0.1 0.2-0.2q-0.5 0.2-1 0.4q-0.6 0.2-1.1 0.4q-0.5 0.1-1.1 0.3q-0.5 0.1-1.1 0.2c-0.6 0.2-1.2 0.3-1.8 0q0.1-0.3 0.3-0.5q0.1-0.3 0.3-0.5q0.2-0.2 0.5-0.4q0.2-0.1 0.5-0.3q-0.2 0.1-0.4 0.1q-0.1 0.1-0.3 0.1q-0.2 0.1-0.3 0.1q-0.2 0-0.4 0c0-0.7 0.5-1.3 1-1.7q1-1 2-1.9q-0.2 0.2-0.4 0.5q0 0-0.1 0.1q0 0.1-0.1 0.1q0 0.1 0 0.2q0 0.1-0.1 0.2q0 0 0 0.1q0 0.1 0.1 0.2q0 0 0 0.1q0.1 0 0.2 0.1q0 0 0.1 0q0.1 0 0.2 0q0 0 0.1 0q0.1-0.1 0.1-0.1q0.2-0.1 0.4-0.2q0.2-0.1 0.4-0.3q0.2-0.1 0.4-0.2q0.1-0.1 0.3-0.2q-0.2 0.2-0.5 0.4q-0.3 0.2-0.5 0.5q-0.2 0.2-0.5 0.5q-0.2 0.3-0.4 0.5q0 0.1 0 0.1q-0.1 0-0.1 0.1q0 0 0 0.1q0 0 0 0c0 0.3 0.4 0.3 0.6 0.3q0.5-0.2 1.1-0.3q0.5-0.2 1-0.3q0.5-0.2 1-0.4q0.6-0.2 1.1-0.4q-0.1 0-0.1 0.1q-0.1 0-0.1 0.1q-0.1 0-0.1 0.1q0 0 0 0.1q0.4 0 0.8 0q0.4-0.1 0.8-0.2q0.4-0.1 0.8-0.3q0.3-0.3 0.6-0.5q0 0-0.1 0.1q0 0.1-0.1 0.1q0 0.1-0.1 0.2q0 0-0.1 0.1c-0.1 0.2-0.2 0.4-0.1 0.6q0 0 0.1 0.1q0 0 0 0q0 0 0.1 0.1q0 0 0.1 0c1.1 0.4 2.3 0.2 3.5-0.1q0.3-0.1 0.7-0.2q0.3-0.1 0.7-0.3q0.3-0.1 0.6-0.2q0.4-0.1 0.7-0.3c0 0 0 0.5 0 0.5z"/></svg>